<svg width="34" height="34" viewBox="0 0 34 34" fill="none" xmlns="http://www.w3.org/2000/svg">
<path d="M29.5 2H4.5C3.83696 2 3.20107 2.26339 2.73223 2.73223C2.26339 3.20107 2 3.83696 2 4.5V29.5C2 30.163 2.26339 30.7989 2.73223 31.2678C3.20107 31.7366 3.83696 32 4.5 32H29.5C30.163 32 30.7989 31.7366 31.2678 31.2678C31.7366 30.7989 32 30.163 32 29.5V4.5C32 3.83696 31.7366 3.20107 31.2678 2.73223C30.7989 2.26339 30.163 2 29.5 2Z" stroke="#FEFEFE" stroke-width="3.33333"/>
<path d="M15.3333 14.5H20.3333M15.3333 19.5H17M26.1667 16.1666C26.1667 20.7691 22.4358 24.5 17.8333 24.5H9.5V16.1666C9.5 11.5641 13.2308 7.83331 17.8333 7.83331C22.4358 7.83331 26.1667 11.5641 26.1667 16.1666Z" stroke="#FEFEFE" stroke-width="3.33333" stroke-linecap="round" stroke-linejoin="round"/>
</svg>
