<svg width="35" height="34" viewBox="0 0 35 34" fill="none" xmlns="http://www.w3.org/2000/svg">
<path d="M3.33333 33.3333C2.41667 33.3333 1.63222 33.0072 0.98 32.355C0.326667 31.7017 0 30.9167 0 30V3.33333C0 2.41667 0.326667 1.63167 0.98 0.978333C1.63222 0.326111 2.41667 0 3.33333 0H18.3333C19.25 0 20.035 0.326111 20.6883 0.978333C21.3406 1.63167 21.6667 2.41667 21.6667 3.33333V30C21.6667 30.9167 21.3406 31.7017 20.6883 32.355C20.035 33.0072 19.25 33.3333 18.3333 33.3333H3.33333ZM3.33333 14.2083C3.83333 13.9028 4.36111 13.6806 4.91667 13.5417C5.47222 13.4028 6.05556 13.3333 6.66667 13.3333H15C15.6111 13.3333 16.1944 13.4028 16.75 13.5417C17.3056 13.6806 17.8333 13.9028 18.3333 14.2083V3.33333H3.33333V14.2083ZM10.8333 11.6667C9.91667 11.6667 9.13222 11.34 8.48 10.6867C7.82667 10.0344 7.5 9.25 7.5 8.33333C7.5 7.41667 7.82667 6.63222 8.48 5.98C9.13222 5.32667 9.91667 5 10.8333 5C11.75 5 12.535 5.32667 13.1883 5.98C13.8406 6.63222 14.1667 7.41667 14.1667 8.33333C14.1667 9.25 13.8406 10.0344 13.1883 10.6867C12.535 11.34 11.75 11.6667 10.8333 11.6667ZM29.1667 22.5L23.3333 16.6667L29.1667 10.8333L31.5 13.1667L29.7083 15H35V18.3333H29.7083L31.5 20.1667L29.1667 22.5ZM9.16667 28.3333H12.5V25H15.8333V21.6667H12.5V18.3333H9.16667V21.6667H5.83333V25H9.16667V28.3333Z" fill="#FEFEFE"/>
</svg>
