<svg width="30" height="30" viewBox="0 0 30 30" fill="none" xmlns="http://www.w3.org/2000/svg">
<path d="M13.3333 23.3333H16.6667L17.1667 20.8333C17.5 20.6944 17.8128 20.5489 18.105 20.3967C18.3961 20.2433 18.6944 20.0556 19 19.8333L21.4167 20.5833L23.0833 17.75L21.1667 16.0833C21.2222 15.6944 21.25 15.3333 21.25 15C21.25 14.6667 21.2222 14.3056 21.1667 13.9167L23.0833 12.25L21.4167 9.41667L19 10.1667C18.6944 9.94444 18.3961 9.75667 18.105 9.60333C17.8128 9.45111 17.5 9.30556 17.1667 9.16667L16.6667 6.66667H13.3333L12.8333 9.16667C12.5 9.30556 12.1872 9.45111 11.895 9.60333C11.6039 9.75667 11.3056 9.94444 11 10.1667L8.58333 9.41667L6.91667 12.25L8.83333 13.9167C8.77778 14.3056 8.75 14.6667 8.75 15C8.75 15.3333 8.77778 15.6944 8.83333 16.0833L6.91667 17.75L8.58333 20.5833L11 19.8333C11.3056 20.0556 11.6039 20.2433 11.895 20.3967C12.1872 20.5489 12.5 20.6944 12.8333 20.8333L13.3333 23.3333ZM15 18.3333C14.0833 18.3333 13.2989 18.0067 12.6467 17.3533C11.9933 16.7011 11.6667 15.9167 11.6667 15C11.6667 14.0833 11.9933 13.2983 12.6467 12.645C13.2989 11.9928 14.0833 11.6667 15 11.6667C15.9167 11.6667 16.7017 11.9928 17.355 12.645C18.0072 13.2983 18.3333 14.0833 18.3333 15C18.3333 15.9167 18.0072 16.7011 17.355 17.3533C16.7017 18.0067 15.9167 18.3333 15 18.3333ZM3.33333 30C2.41667 30 1.63167 29.6739 0.978333 29.0217C0.326111 28.3683 0 27.5833 0 26.6667V3.33333C0 2.41667 0.326111 1.63167 0.978333 0.978333C1.63167 0.326111 2.41667 0 3.33333 0H26.6667C27.5833 0 28.3683 0.326111 29.0217 0.978333C29.6739 1.63167 30 2.41667 30 3.33333V26.6667C30 27.5833 29.6739 28.3683 29.0217 29.0217C28.3683 29.6739 27.5833 30 26.6667 30H3.33333ZM3.33333 26.6667H26.6667V3.33333H3.33333V26.6667Z" fill="#FEFEFE"/>
</svg>
