<svg width="67" height="67" viewBox="0 0 67 67" fill="none" xmlns="http://www.w3.org/2000/svg">
<path fill-rule="evenodd" clip-rule="evenodd" d="M33.2 66.4C42.0052 66.4 50.4497 62.9022 56.6759 56.6759C62.9022 50.4497 66.4 42.0052 66.4 33.2C66.4 24.3948 62.9022 15.9503 56.6759 9.72406C50.4497 3.49785 42.0052 0 33.2 0C24.3948 0 15.9503 3.49785 9.72406 9.72406C3.49785 15.9503 0 24.3948 0 33.2C0 42.0052 3.49785 50.4497 9.72406 56.6759C15.9503 62.9022 24.3948 66.4 33.2 66.4ZM36.134 23.684C36.89 22.9014 37.3083 21.8531 37.2988 20.7649C37.2894 19.6768 36.8529 18.6359 36.0835 17.8665C35.3141 17.0971 34.2732 16.6606 33.1851 16.6512C32.0969 16.6417 31.0487 17.06 30.266 17.816L17.816 30.266C17.0379 31.0442 16.6009 32.0996 16.6009 33.2C16.6009 34.3004 17.0379 35.3558 17.816 36.134L30.266 48.584C31.0487 49.34 32.0969 49.7583 33.1851 49.7488C34.2732 49.7394 35.3141 49.3029 36.0835 48.5335C36.8529 47.7641 37.2894 46.7232 37.2988 45.6351C37.3083 44.5469 36.89 43.4986 36.134 42.716L30.7681 37.35H45.65C46.7506 37.35 47.8062 36.9128 48.5845 36.1345C49.3628 35.3562 49.8 34.3006 49.8 33.2C49.8 32.0994 49.3628 31.0438 48.5845 30.2655C47.8062 29.4872 46.7506 29.05 45.65 29.05H30.7681L36.134 23.684Z" fill="#006797"/>
</svg>
