<svg width="142" height="85" viewBox="0 0 142 85" fill="none" xmlns="http://www.w3.org/2000/svg">
<path d="M0 71.2376C0 71.2376 11.4708 44.5256 36.3229 41.4211C61.1766 38.3166 65.4754 47.2186 93.438 38.5223C93.438 38.5223 98.2165 51.5667 68.347 54.8785C68.347 54.8785 65.2398 60.0541 74.5595 60.0541C83.881 60.0541 116.858 56.4471 139.801 26.7186C139.801 26.7186 150.553 37.2787 124.506 60.6745C98.459 84.0702 65.4788 96.0842 0 71.2376Z" fill="#FEFEFE"/>
<mask id="mask0_395_94" style="mask-type:luminance" maskUnits="userSpaceOnUse" x="47" y="16" width="68" height="19">
<path d="M47.4355 16.1547H114.307V34.2012H47.4355V16.1547Z" fill="white"/>
</mask>
<g mask="url(#mask0_395_94)">
<path d="M72.8092 28.2792C63.0833 28.2792 54.3006 23.6273 48.0396 19.0815C53.2009 24.0462 65.5112 34.1974 79.8763 34.1974C98.8927 34.1974 114.307 16.4106 114.307 16.4106H101.01C94.7829 21.5857 84.4746 28.2792 72.8092 28.2792Z" fill="#F5BAAA"/>
</g>
<mask id="mask1_395_94" style="mask-type:luminance" maskUnits="userSpaceOnUse" x="32" y="0" width="68" height="19">
<path d="M32.9958 0H99.7951V18.0958H32.9958V0Z" fill="white"/>
</mask>
<g mask="url(#mask1_395_94)">
<path d="M74.4936 5.90872C84.2196 5.90872 93.0023 10.5625 99.2633 15.1083C94.102 10.1436 81.7917 -0.00758362 67.4241 -0.00758362C48.4101 -0.00758362 32.9958 17.7792 32.9958 17.7792H46.2903C52.5176 12.6041 62.8282 5.90872 74.4936 5.90872Z" fill="#F5BAAA"/>
</g>
<path d="M78.0092 9.32656C78.784 9.88388 79.27 10.6857 79.27 11.5748C79.27 13.26 77.5279 14.6249 75.3792 14.6249C73.2304 14.6249 71.4883 13.26 71.4883 11.5748C71.4883 9.88956 73.2304 8.5247 75.3792 8.5247C75.4249 8.5247 75.4706 8.5247 75.5163 8.5266C74.5562 8.31997 73.5432 8.20813 72.4989 8.20813C66.2331 8.20813 61.1536 12.189 61.1536 17.1006C61.1536 22.0141 66.2331 25.9949 72.4989 25.9949C78.7623 25.9949 83.8419 22.0141 83.8419 17.1006C83.8419 13.7586 81.4886 10.8469 78.0092 9.32656Z" fill="#F5BAAA"/>
</svg>
