<svg width="33" height="38" viewBox="0 0 33 38" fill="none" xmlns="http://www.w3.org/2000/svg">
<path d="M32.478 27.5488L28.6696 22.3719V15.0341C28.805 13.0831 28.2719 11.1401 27.1318 9.42974C25.9917 7.71942 24.2912 6.31162 22.2269 5.36909C22.255 5.06875 22.255 4.76704 22.2269 4.4667C22.2047 3.86162 22.0389 3.26611 21.739 2.7142C21.4391 2.16229 21.011 1.66481 20.4791 1.25019C19.9472 0.835572 19.3221 0.511951 18.6393 0.297826C17.9565 0.0836997 17.2296 -0.0167324 16.5 0.00227051C15.7704 -0.0167324 15.0435 0.0836997 14.3607 0.297826C13.6779 0.511951 13.0528 0.835572 12.5209 1.25019C11.989 1.66481 11.5609 2.16229 11.261 2.7142C10.9611 3.26611 10.7953 3.86162 10.7731 4.4667C10.731 4.76648 10.731 5.06931 10.7731 5.36909C8.70882 6.31162 7.00832 7.71942 5.86821 9.42974C4.7281 11.1401 4.19495 13.0831 4.33039 15.0341V22.3719L0.522024 27.5488C0.192595 27.9975 0.012678 28.5107 0.000645821 29.036C-0.0113863 29.5613 0.144898 30.0798 0.453538 30.5386C0.762178 30.9974 1.21212 31.38 1.7574 31.6474C2.30269 31.9149 2.92379 32.0575 3.55727 32.0607H8.62555C8.75802 33.7025 9.65216 35.238 11.1203 36.3449C12.5885 37.4518 14.5166 38.0441 16.5 37.9974C18.4834 38.0441 20.4115 37.4518 21.8797 36.3449C23.3478 35.238 24.242 33.7025 24.3745 32.0607H29.4427C30.0762 32.0575 30.6973 31.9149 31.2426 31.6474C31.7879 31.38 32.2378 30.9974 32.5465 30.5386C32.8551 30.0798 33.0114 29.5613 32.9994 29.036C32.9873 28.5107 32.8074 27.9975 32.478 27.5488ZM14.3524 4.4667C14.4033 4.03394 14.6567 3.63495 15.0581 3.35528C15.4596 3.07561 15.9772 2.93753 16.5 2.97064C17.0228 2.93753 17.5404 3.07561 17.9419 3.35528C18.3433 3.63495 18.5967 4.03394 18.6476 4.4667C17.9324 4.42956 17.2152 4.42956 16.5 4.4667C15.7849 4.42893 15.0676 4.42893 14.3524 4.4667ZM16.5 35.0291C15.4653 35.0722 14.449 34.7908 13.6531 34.2408C12.8573 33.6908 12.3402 32.9125 12.2048 32.0607H20.7952C20.6598 32.9125 20.1427 33.6908 19.3469 34.2408C18.551 34.7908 17.5347 35.0722 16.5 35.0291ZM3.55727 29.0923L7.39427 23.9392L7.90969 23.2031V15.0341C7.90281 13.2557 8.49808 11.5114 9.62775 9.99975C10.4072 9.1138 11.4496 8.40993 12.6536 7.95642C13.8577 7.50291 15.1827 7.31514 16.5 7.41133C17.8173 7.31514 19.1423 7.50291 20.3464 7.95642C21.5504 8.40993 22.5928 9.1138 23.3722 9.99975C24.5019 11.5114 25.0972 13.2557 25.0903 15.0341V23.2031L25.6057 23.9392L29.4427 29.0923H3.55727Z" fill="#FEFEFE"/>
</svg>
